<?xml version="1.0" encoding="utf-8"?>
<!-- Generator: Adobe Illustrator 27.8.1, SVG Export Plug-In . SVG Version: 6.00 Build 0)  -->
<svg version="1.1" id="Layer_1" xmlns="http://www.w3.org/2000/svg" xmlns:xlink="http://www.w3.org/1999/xlink" x="0px" y="0px"
	 viewBox="0 0 167 96" style="enable-background:new 0 0 167 96;" xml:space="preserve">
<style type="text/css">
	.st0{clip-path:url(#SVGID_00000024704870303615401120000001162373332521345439_);}
	.st1{fill:#FFFF00;}
	.st2{enable-background:new    ;}
	.st3{fill:#42405C;}
</style>
<g>
	<defs>
		<rect id="SVGID_1_" width="167" height="96"/>
	</defs>
	<clipPath id="SVGID_00000108300618813711181550000015697839409674401673_">
		<use xlink:href="#SVGID_1_"  style="overflow:visible;"/>
	</clipPath>
	<g id="Artboard_1" style="clip-path:url(#SVGID_00000108300618813711181550000015697839409674401673_);">
		<g id="Group_3" transform="translate(-776.5 -653.06)">
			<path id="Path_1" class="st1" d="M776.5,653.1l9.8,40.4l6.8-14.9l15.8-2.1L776.5,653.1z"/>
			<g id="Group_2">
				<path id="Rectangle_10" class="st1" d="M810,693h128c2.8,0,5,2.2,5,5v46c0,2.8-2.2,5-5,5H810c-2.8,0-5-2.2-5-5v-46
					C805,695.2,807.2,693,810,693z"/>
				<g class="st2">
					<path class="st3" d="M822,731c-0.2,0-0.3-0.1-0.3-0.4v-20.3c0-0.2,0.1-0.4,0.3-0.4h2.4c0.2,0,0.3,0.1,0.3,0.4v20.3
						c0,0.2-0.1,0.4-0.3,0.4H822z"/>
					<path class="st3" d="M835.4,731.4c-1.1,0-2-0.2-2.7-0.6s-1.2-0.9-1.5-1.7c-0.3-0.8-0.4-1.7-0.4-2.9v-8.3h-2.4
						c-0.2,0-0.4-0.1-0.4-0.4v-1.9c0-0.2,0.1-0.3,0.4-0.3h2.5l0.4-3.8c0-0.2,0.1-0.4,0.4-0.4h1.9c0.2,0,0.3,0.1,0.3,0.4l0,3.8h4.6
						c0.2,0,0.4,0.1,0.4,0.3v1.9c0,0.2-0.1,0.4-0.4,0.4h-4.6v8.2c0,1,0.2,1.6,0.5,2c0.3,0.4,0.9,0.6,1.7,0.6c0.4,0,0.8,0,1.3-0.1
						c0.4-0.1,0.8-0.2,1.1-0.4c0.3-0.1,0.4,0,0.4,0.3v2c0,0.2-0.1,0.3-0.3,0.4c-0.4,0.1-0.8,0.3-1.4,0.4
						C836.6,731.3,836,731.4,835.4,731.4z"/>
					<path class="st3" d="M841.7,717.6c-0.2,0-0.4-0.1-0.4-0.3v-7.7c0-0.2,0.1-0.4,0.4-0.4h2.3c0.2,0,0.4,0.1,0.4,0.4v7.7
						c0,0.2-0.1,0.3-0.4,0.3H841.7z"/>
					<path class="st3" d="M853.4,731.4c-2,0-3.5-0.4-4.4-1.3c-1-0.8-1.4-2.1-1.4-3.8c0-0.2,0.1-0.3,0.3-0.3h2.4
						c0.2,0,0.3,0.1,0.3,0.3c0,0.9,0.2,1.5,0.7,2c0.5,0.4,1.2,0.6,2.2,0.6s1.8-0.2,2.3-0.5c0.5-0.3,0.8-0.8,0.8-1.4
						c0-0.5-0.1-0.9-0.4-1.2s-0.8-0.6-1.4-0.9l-3.6-1.5c-1.2-0.5-2-1-2.5-1.7c-0.5-0.6-0.7-1.4-0.7-2.4c0-1.4,0.5-2.5,1.4-3.2
						c0.9-0.7,2.3-1.1,4.1-1.1c1.9,0,3.3,0.4,4.3,1.1c1,0.8,1.5,1.8,1.5,3.2c0,0.2-0.1,0.3-0.4,0.3h-2.3c-0.2,0-0.3-0.2-0.3-0.5
						c0-0.5-0.2-0.9-0.7-1.2s-1.1-0.4-2-0.4c-0.9,0-1.5,0.1-1.9,0.4s-0.6,0.7-0.6,1.3c0,0.4,0.1,0.8,0.4,1c0.2,0.2,0.7,0.5,1.4,0.8
						l3.6,1.5c1.1,0.4,2,1,2.5,1.6c0.5,0.7,0.8,1.5,0.8,2.5c0,1.5-0.5,2.6-1.6,3.4S855.3,731.4,853.4,731.4z"/>
					<path class="st3" d="M875.9,731.4c-2.1,0-3.8-0.5-4.9-1.5s-1.7-2.4-1.7-4.3v-4.4c0-2,0.5-3.6,1.6-4.7c1.1-1.1,2.7-1.6,4.8-1.6
						c2.1,0,3.7,0.5,4.8,1.6s1.6,2.6,1.6,4.5v2.5c0,0.2-0.1,0.3-0.3,0.3h-9.7v1c0,1.3,0.3,2.3,0.9,2.9s1.5,0.9,2.8,0.9
						c1,0,1.7-0.2,2.2-0.5s0.8-0.8,0.8-1.4c0-0.2,0.1-0.4,0.4-0.4h2.4c0.2,0,0.3,0.1,0.3,0.3c0.1,1.4-0.4,2.5-1.5,3.3
						S877.9,731.4,875.9,731.4z M872.4,721.5h7v-0.2c0-1.3-0.3-2.3-0.9-2.9c-0.6-0.6-1.4-0.9-2.6-0.9c-1.2,0-2.1,0.3-2.7,0.9
						c-0.6,0.6-0.9,1.6-0.9,2.9V721.5z"/>
					<path class="st3" d="M889.5,731.4c-1.2,0-2.2-0.4-2.8-1.1c-0.7-0.8-1-1.9-1-3.3c0-1.1,0.2-2,0.7-2.7c0.4-0.7,1.1-1.2,2.1-1.6
						c1-0.4,2.3-0.7,3.9-0.8l3-0.3v2.1l-2.9,0.3c-1.4,0.1-2.3,0.4-2.9,0.8s-0.8,1.1-0.8,2c0,0.7,0.1,1.2,0.4,1.6
						c0.3,0.4,0.7,0.5,1.3,0.5c0.7,0,1.4-0.2,2.1-0.7c0.7-0.5,1.7-1.3,2.9-2.5l0.1,2.4c-0.7,0.8-1.4,1.4-2,1.9
						c-0.6,0.5-1.3,0.9-1.9,1.1C890.8,731.3,890.2,731.4,889.5,731.4z M895.6,731c-0.1,0-0.2,0-0.3-0.1c-0.1-0.1-0.1-0.2-0.1-0.3
						c0-0.2-0.1-0.5-0.1-1.1c-0.1-0.6-0.1-1.1-0.1-1.5l-0.1-1.2v-6.4c0-1-0.2-1.7-0.6-2.2s-1.1-0.6-2.1-0.6c-1.8,0-2.7,0.6-2.7,1.9
						c0,0.2-0.1,0.4-0.3,0.4h-2.3c-0.2,0-0.4-0.2-0.4-0.6c-0.1-1.3,0.4-2.3,1.4-3.1c1.1-0.8,2.5-1.2,4.4-1.2c1.9,0,3.4,0.4,4.3,1.3
						s1.4,2.2,1.4,4v6.8c0,0.7,0,1.4,0,2c0,0.6,0.1,1.1,0.1,1.6c0,0.3-0.1,0.4-0.3,0.4H895.6z"/>
					<path class="st3" d="M907.6,731.4c-2,0-3.5-0.4-4.4-1.3s-1.4-2.1-1.4-3.8c0-0.2,0.1-0.3,0.3-0.3h2.4c0.2,0,0.3,0.1,0.3,0.3
						c0,0.9,0.2,1.5,0.7,2c0.5,0.4,1.2,0.6,2.2,0.6s1.8-0.2,2.3-0.5c0.5-0.3,0.8-0.8,0.8-1.4c0-0.5-0.1-0.9-0.4-1.2
						s-0.8-0.6-1.4-0.9l-3.6-1.5c-1.2-0.5-2-1-2.5-1.7c-0.5-0.6-0.7-1.4-0.7-2.4c0-1.4,0.5-2.5,1.4-3.2c0.9-0.7,2.3-1.1,4.1-1.1
						c1.9,0,3.3,0.4,4.3,1.1c1,0.8,1.5,1.8,1.5,3.2c0,0.2-0.1,0.3-0.4,0.3h-2.3c-0.2,0-0.3-0.2-0.3-0.5c0-0.5-0.2-0.9-0.7-1.2
						c-0.5-0.3-1.1-0.4-2-0.4c-0.9,0-1.5,0.1-1.9,0.4s-0.6,0.7-0.6,1.3c0,0.4,0.1,0.8,0.4,1c0.2,0.2,0.7,0.5,1.4,0.8l3.6,1.5
						c1.1,0.4,2,1,2.5,1.6c0.5,0.7,0.8,1.5,0.8,2.5c0,1.5-0.5,2.6-1.6,3.4C911,731,909.5,731.4,907.6,731.4z"/>
					<path class="st3" d="M919.4,736.9c-0.3,0-0.3-0.1-0.2-0.4l2.2-5.7l-5.9-15.1c-0.1-0.3,0-0.4,0.2-0.4h2.6c0.2,0,0.3,0.1,0.4,0.3
						l2.7,7.4c0.3,0.7,0.5,1.3,0.7,2.1s0.5,1.4,0.7,2.1h0.1c0.2-0.7,0.4-1.4,0.7-2.1s0.5-1.4,0.7-2.1l2.7-7.4
						c0.1-0.2,0.2-0.3,0.4-0.3h2.5c0.3,0,0.4,0.1,0.3,0.4l-8,20.9c-0.1,0.2-0.2,0.3-0.4,0.3H919.4z"/>
				</g>
			</g>
		</g>
	</g>
</g>
</svg>
