<svg xmlns="http://www.w3.org/2000/svg" version="1.1" xmlns:xlink="http://www.w3.org/1999/xlink" xmlns:svgjs="http://svgjs.com/svgjs" width="1000" height="1000"><rect width="1000" height="1000" rx="200" ry="200" fill="#ffffff"></rect><g transform="matrix(12.698412698412698,0,0,12.698412698412698,99.12174475470943,99.08097973324004)"><svg xmlns="http://www.w3.org/2000/svg" version="1.1" xmlns:xlink="http://www.w3.org/1999/xlink" xmlns:svgjs="http://svgjs.com/svgjs" width="63" height="63"><svg version="1.1" id="Layer_1" xmlns="http://www.w3.org/2000/svg" xmlns:xlink="http://www.w3.org/1999/xlink" x="0px" y="0px" viewBox="0 0 63 63" style="enable-background:new 0 0 63 63;" xml:space="preserve">
<style type="text/css">
	.st0{fill:#42405C;}
	.st1{fill:#F0C926;}
	.st2{fill:#D69228;}
	.st3{fill:#E5B427;}
</style>
<g>
	<path class="st0" d="M7.67,57.95c4.25-4.23,8.47-8.48,12.75-12.68c1.12-1.1,2.06-0.01,3.1,0.46c7.74,3.55,14.54,2.63,19.74-2.59
		c5.22-5.25,6.16-11.95,2.47-19.74c-0.75-1.58-1.08-2.55,0.32-3.86c2.55-2.38,4.99-4.89,7.42-7.4c1.11-1.15,1.99-1.61,3.16-0.03
		c1,1.35,1.72,2.62-0.05,3.74c-2.44,1.54-3.5,3.66-2.48,6.34c1.06,2.78,3.47,3.28,6.19,2.82c1.97-0.33,2.75,0.74,2.77,2.55
		c0.03,2.49,0.03,4.99,0.04,7.48c0.02,2.27-0.84,3.4-3.35,2.93c-2.58-0.47-4.7,0.45-5.62,3c-0.81,2.25-0.2,4.35,1.87,5.69
		c2.41,1.55,1.96,3.12,0.3,4.82c-1.5,1.54-3.03,3.06-4.57,4.56c-1.75,1.71-3.3,1.96-4.86-0.38c-1.35-2.01-3.42-2.58-5.7-1.7
		c-2.3,0.89-3.53,2.76-3.02,5.11c0.74,3.45-1.03,4.06-3.77,4.02c-1.83-0.03-3.65-0.01-5.48-0.04c-2.5-0.03-3.86-0.61-3.63-3.81
		c0.33-4.6-2.65-6.64-7.17-5.07c-3.33,1.16-6.41,3.03-9.6,4.59C8.2,58.51,7.94,58.23,7.67,57.95z"></path>
	<path class="st1" d="M22.06,9.55c2.17-1.05,3.33-2.68,2.94-5.18c-0.53-3.45,1.41-4.38,4.37-4.3c1.83,0.05,3.66-0.01,5.48,0.05
		c2.09,0.06,3.21,0.73,3.27,3.28c0.13,5.54,2.93,7.29,8.11,5.36c1.85-0.69,3.52-1.85,5.33-2.66c1.58-0.71,2.64-2.53,5.57-2.23
		c-4.85,4.82-9.29,9.19-13.68,13.6c-0.97,0.98-1.9,1.17-3.06,0.4c-4.84-3.19-9.99-3.09-15.29-1.44
		C25.19,13.64,21.66,12.47,22.06,9.55z"></path>
	<path class="st2" d="M15.66,28.01c-0.33,4.24-0.99,8.52,2.15,12.16c1.09,1.27,0.54,2.39-0.54,3.45c-2.37,2.31-4.68,4.7-7.05,7.02
		c-0.9,0.88-1.81,2.25-3.23,0.64c-1.11-1.25-1.66-2.69-0.09-3.86c2.19-1.65,3.62-3.51,2.48-6.31c-1.12-2.74-3.43-3.39-6.15-2.97
		c-2.02,0.31-2.71-0.96-2.91-2.55c-0.22-1.8-0.27-3.63-0.27-5.45c-0.01-3.08,0.36-5.78,4.67-4.85c1.54,0.33,2.8-0.82,4.1-1.52
		C10.32,26.43,12.55,27.93,15.66,28.01z"></path>
	<path class="st3" d="M15.66,28.01c-3.11-0.08-5.34-1.58-6.84-4.25c1.24-2.83,1.35-5.45-1.55-7.37c-2.19-1.45-1.59-2.99-0.22-4.52
		c1.31-1.48,2.66-2.94,4.1-4.29c1.87-1.75,3.7-2.77,5.62,0.17c1.18,1.81,3.2,2.18,5.3,1.81c-0.4,2.92,3.13,4.1,3.05,6.88
		C20.48,19.09,16.76,22.48,15.66,28.01z"></path>
</g>
</svg></svg></g></svg>