<?xml version="1.0" encoding="utf-8"?>
<!-- Generator: Adobe Illustrator 27.5.0, SVG Export Plug-In . SVG Version: 6.00 Build 0)  -->
<svg version="1.1" id="Layer_1" xmlns="http://www.w3.org/2000/svg" xmlns:xlink="http://www.w3.org/1999/xlink" x="0px" y="0px"
	 viewBox="0 0 206 300" style="enable-background:new 0 0 206 300;" xml:space="preserve">
<style type="text/css">
	.st0{fill:#212529;}
	.st1{fill:#FFFFFF;}
</style>
<rect class="st0" width="206" height="300"/>
<g>
	<path class="st1" d="M165.8,159.05c-2.59-2.58-5.72-4.55-9.17-5.75v-42.16c0-3.24-1.29-6.36-3.58-8.65
		c-2.29-2.29-5.41-3.58-8.65-3.58H62.84c-3.24,0-6.36,1.29-8.65,3.58c-2.29,2.29-3.58,5.41-3.58,8.65v57.09
		c0,1.66,0.34,3.3,1.02,4.81v0.24c0.98,2.15,2.56,3.97,4.54,5.25c1.99,1.27,4.31,1.94,6.67,1.93h61.53c1,5.94,4.15,11.3,8.85,15.06
		c4.7,3.76,10.63,5.66,16.64,5.32c6.01-0.33,11.69-2.87,15.95-7.13c4.61-4.59,7.2-10.83,7.2-17.33
		C173,169.87,170.41,163.64,165.8,159.05L165.8,159.05z M134.45,184.53c-1.84-3.11-2.6-6.75-2.14-10.33
		c0.45-3.59,2.08-6.92,4.63-9.48c3.08-3.01,7.23-4.68,11.54-4.65c1.12,0.01,2.24,0.13,3.34,0.37c1.75,0.35,3.44,1,4.97,1.92
		L134.45,184.53z M106.64,153.13l-16.31-20.39c-0.79-0.81-1.89-1.25-3.02-1.22c-1.2-0.02-2.35,0.49-3.14,1.39l-25.4,28.75v-50.52
		c0-1.08,0.43-2.12,1.19-2.88c0.76-0.76,1.8-1.19,2.88-1.19h81.56c1.08,0,2.12,0.43,2.88,1.19c0.76,0.76,1.19,1.8,1.19,2.88v40.78
		c-2.49,0-4.97,0.38-7.34,1.14l-14.48-12.23c-0.74-0.63-1.68-0.98-2.65-0.98c-0.97,0-1.91,0.35-2.65,0.98L106.64,153.13z
		 M160.01,187.8c-2.57,2.55-5.9,4.17-9.49,4.61c-3.59,0.44-7.22-0.32-10.33-2.16l22.3-22.02c1.81,3.1,2.55,6.71,2.1,10.27
		c-0.45,3.56-2.06,6.87-4.59,9.43L160.01,187.8z"/>
	<path class="st1" d="M119.93,123.37c0,4.5-3.65,8.16-8.16,8.16c-4.5,0-8.16-3.65-8.16-8.16c0-4.5,3.65-8.16,8.16-8.16
		C116.28,115.21,119.93,118.86,119.93,123.37"/>
</g>
</svg>
